<?xml version="1.0" standalone="no"?><!DOCTYPE svg PUBLIC "-//W3C//DTD SVG 1.1//EN" "http://www.w3.org/Graphics/SVG/1.1/DTD/svg11.dtd"><svg class="icon" height="512" viewBox="0 0 1024 1024" version="1.1" xmlns="http://www.w3.org/2000/svg"><path d="M515.81 843.1c-44.666 0-87.787-5.525-128.473-15.792 0.55 0.064-174.832 118.1-174.832 118.1s0.466-205.336 0-204.617c-96.952-68.819-142.74-157.77-142.74-272.801 0-207.157 199.705-375.109 446.046-375.109 246.34 0 446.046 167.952 446.046 375.109 0 207.157-199.705 375.109-446.046 375.109zM283.865 399.785c-39.416 0-71.36 30.525-71.36 68.206 0 37.659 31.943 68.206 71.36 68.206s71.36-30.525 71.36-68.206c0.022-37.68-31.943-68.206-71.36-68.206zM533.655 399.785c-39.416 0-71.36 30.525-71.36 68.206 0 37.659 31.943 68.206 71.36 68.206s71.36-30.525 71.36-68.206-31.943-68.206-71.36-68.206zM783.446 399.785c-39.416 0-71.36 30.525-71.36 68.206 0 37.659 31.943 68.206 71.36 68.206s71.36-30.525 71.36-68.206-31.943-68.206-71.36-68.206z" fill="#5D5E5E" /></svg>