<?xml version="1.0" standalone="no"?><!DOCTYPE svg PUBLIC "-//W3C//DTD SVG 1.1//EN" "http://www.w3.org/Graphics/SVG/1.1/DTD/svg11.dtd"><svg class="icon" height="512" viewBox="0 0 1024 1024" version="1.1" xmlns="http://www.w3.org/2000/svg"><path d="M734.4 410.4h-10v-93.5c0-117.2-95.9-213.1-213.1-213.1s-213.1 95.9-213.1 213.1v93.5h-10c-31.2 0-56.4 25.3-56.4 56.4v395.9c0 31.2 25.3 56.4 56.4 56.4h446.1c31.2 0 56.4-25.3 56.4-56.4V466.9c0.1-31.2-25.1-56.5-56.3-56.5zM534.2 642v97.9c0 12.6-10.3 22.8-22.8 22.8-12.6 0-22.8-10.3-22.8-22.8V642c-21.5-9.3-36.6-31.2-36.6-56.9 0-34 26.6-61.6 59.4-61.6s59.4 27.6 59.4 61.6c0 25.6-15.2 47.6-36.6 56.9z m125.4-231.6H363V307.2c0-81.6 66.7-148.3 148.3-148.3 81.6 0 148.3 66.7 148.3 148.3v103.2z" fill="#666666" /></svg>