<?xml version="1.0" standalone="no"?>
<!DOCTYPE svg PUBLIC "-//W3C//DTD SVG 1.1//EN" "http://www.w3.org/Graphics/SVG/1.1/DTD/svg11.dtd"><svg class="icon"
    height="512" viewBox="0 0 1024 1024" version="1.1" xmlns="http://www.w3.org/2000/svg">
    <path d="M511.999488 78.361719c-239.489466 0-433.640328 194.146768-433.641351 433.635211 0 239.495606 194.150862 433.641351 433.641351 433.641351 239.495606 0 433.641351-194.145745 433.641351-433.641351C945.64084 272.508487 751.495094 78.361719 511.999488 78.361719zM223.791437 800.668539l33.731242-135.348618 101.335966 101.56007L223.791437 800.668539zM384.397299 741.483578l-101.334943-101.533464 304.007899-304.569694 101.335966 101.533464L384.397299 741.483578zM789.713534 335.38042l-75.996858 76.135004-101.33392-101.532441 76.023464-76.135004c13.964036-14.022365 36.658921-14.022365 50.65161 0l50.655703 50.765197C803.7052 298.635541 803.7052 321.359079 789.713534 335.38042z"
        fill="#707070" /></svg>